<svg xmlns="http://www.w3.org/2000/svg" width="34.197" height="40.899" viewBox="0 0 34.197 40.899"><g transform="translate(-5.7 -0.5)"><path d="M35.067,34.822A5.847,5.847,0,0,0,30.182,32c-1.566-.313-4.134-1.315-3.883-3.069a5.161,5.161,0,0,0,2.255-3.382.393.393,0,0,0,.063-.5,2.65,2.65,0,0,0,1.879-2.568,2.588,2.588,0,0,0-1-2.129,7.484,7.484,0,0,0,.063-1.566c-.063-2.443-1.253-4.134-3.633-3.57a5.389,5.389,0,0,0-1.566-.689.682.682,0,0,0-.689-.125,5.062,5.062,0,0,0-5.574,4.134.682.682,0,0,0-.125.689,8.316,8.316,0,0,0,0,1.253,2.756,2.756,0,0,0,.877,4.76V25.3a.46.46,0,0,0-.125.376.569.569,0,0,0,.188.438c.063.063.125.063.188.125a5.257,5.257,0,0,0,2.129,2.881,2.64,2.64,0,0,1-.564,1.5,5.027,5.027,0,0,1-3.57,1.566,5.729,5.729,0,0,0-4.51,2.255,5.908,5.908,0,0,0-1.315,3.7v2.631a.592.592,0,0,0,.626.626h23.3a.592.592,0,0,0,.626-.626V38.142a5.246,5.246,0,0,0-.752-3.32ZM22.541,15.532a3.6,3.6,0,0,1,2.881.752.569.569,0,0,0,.438.188c.313,0,2.944-1.315,2.505,3.507-.689-.313-1.065-1.5-1.065-1.5a.757.757,0,0,0-.438-.438.635.635,0,0,0-.626.188,7.956,7.956,0,0,1-6.89,1.942,4.17,4.17,0,0,1,3.194-4.635Zm-2.317,9.019a.592.592,0,0,0-.626-.626,1.46,1.46,0,0,1-.752-2.568,9.246,9.246,0,0,0,7.579-1.628,2.715,2.715,0,0,0,2.317,1.628,1.376,1.376,0,0,1,.564,1.19,1.347,1.347,0,0,1-1.253,1.441.592.592,0,0,0-.626.626,3.727,3.727,0,0,1-4.447,3.821A4.11,4.11,0,0,1,20.223,24.551ZM34.691,39.958H12.645v-2a4.691,4.691,0,0,1,4.7-4.7h.188a6.209,6.209,0,0,0,4.2-2,4.333,4.333,0,0,0,.814-1.754,5.115,5.115,0,0,0,2.568.063c.188,2.067,2.693,3.194,4.7,3.633a.469.469,0,0,0,.313.063,4.691,4.691,0,0,1,4.7,4.7v2ZM38.2,18.977a.628.628,0,0,0-.626.626.674.674,0,0,0,.626.626.592.592,0,0,0,.626-.626A.628.628,0,0,0,38.2,18.977Zm0,2.505a.626.626,0,1,0,0,1.253.592.592,0,0,0,.626-.626A.628.628,0,0,0,38.2,21.482Zm0-5.011a.626.626,0,1,0,0,1.253.592.592,0,0,0,.626-.626A.628.628,0,0,0,38.2,16.471Zm0,10.021a.626.626,0,1,0,.626.626A.628.628,0,0,0,38.2,26.492Zm0-2.505a.626.626,0,1,0,0,1.253.592.592,0,0,0,.626-.626A.628.628,0,0,0,38.2,23.987ZM32.875,9.269A.634.634,0,1,0,32,9.456.627.627,0,0,0,32.875,9.269Zm2.067,1.441a.634.634,0,1,0-.877.188.674.674,0,0,0,.877-.188ZM30.808,7.891a.634.634,0,1,0-.877.188A.674.674,0,0,0,30.808,7.891ZM28.741,6.513a.634.634,0,1,0-.877.188A.674.674,0,0,0,28.741,6.513Zm-7.265-1.5a.68.68,0,0,0,.564.251,2.836,2.836,0,0,0,3.946.063h.188a.773.773,0,0,0,.5-.251.666.666,0,0,0-.063-.752A2.767,2.767,0,0,0,24.044.5a2.816,2.816,0,0,0-2.568,3.946A.6.6,0,0,0,21.476,5.01Zm2.568-3.257a1.566,1.566,0,1,1,0,3.132,1.591,1.591,0,0,1-1.566-1.566A1.591,1.591,0,0,1,24.044,1.753ZM20.286,6.575a.634.634,0,1,0-.877-.188A.627.627,0,0,0,20.286,6.575ZM18.219,7.953a.634.634,0,1,0-.877-.188A.572.572,0,0,0,18.219,7.953Zm-4.134,2.818a.634.634,0,1,0-.877-.188A.616.616,0,0,0,14.085,10.772Zm2.067-1.378a.634.634,0,1,0-.877-.188A.627.627,0,0,0,16.152,9.394ZM9.826,18.977a.626.626,0,1,0,.626.626A.628.628,0,0,0,9.826,18.977Zm0,2.505a.628.628,0,0,0-.626.626.674.674,0,0,0,.626.626.626.626,0,1,0,0-1.253Zm0,5.011a.626.626,0,1,0,.626.626A.628.628,0,0,0,9.826,26.492Zm0-2.505a.628.628,0,0,0-.626.626.674.674,0,0,0,.626.626.626.626,0,1,0,0-1.253Zm0-7.516a.626.626,0,1,0,.626.626A.628.628,0,0,0,9.826,16.471Zm22.61-.5a.616.616,0,0,0-.188.877.674.674,0,0,0,.877.188.616.616,0,0,0,.188-.877A.674.674,0,0,0,32.437,15.97Zm-2,2.129a.674.674,0,0,0,.877.188.634.634,0,1,0-.689-1.065A.636.636,0,0,0,30.432,18.1Zm3.883-3.382a.616.616,0,0,0-.188.877.627.627,0,0,0,.877.188.616.616,0,0,0,.188-.877A.674.674,0,0,0,34.316,14.718Z" transform="translate(-1.308)" fill="#00b7eb"/><path d="M20.2,35.988a.634.634,0,1,0-.877-.188A.58.58,0,0,0,20.2,35.988Zm-3.883,2.631a.674.674,0,0,0,.188-.877.634.634,0,0,0-1.065.689A.572.572,0,0,0,16.314,38.618ZM18.255,37.3a.634.634,0,1,0-.877-.188A.58.58,0,0,0,18.255,37.3Zm-.188-11.712a.616.616,0,0,0,.188.877.636.636,0,0,0,.877-.188.616.616,0,0,0-.188-.877A.636.636,0,0,0,18.067,25.591ZM15.75,24.025a.634.634,0,1,0,.877-.188A.616.616,0,0,0,15.75,24.025ZM32.16,35.8a.636.636,0,0,0,.877-.188.616.616,0,0,0-.188-.877A.634.634,0,0,0,32.16,35.8Zm2.38,1.5a.773.773,0,0,0,.5-.251.634.634,0,1,0-.877.188,1.1,1.1,0,0,0,.376.063Zm2.129,1.441a.773.773,0,0,0,.5-.251.634.634,0,1,0-.877.188c.125,0,.251.063.376.063Z" transform="translate(-3.599 -8.681)" fill="#00b7eb"/><circle cx="0.626" cy="0.626" r="0.626" transform="translate(22.11 9.519)" fill="#00b7eb"/><path d="M32.526,18.7a.626.626,0,1,0,.626.626A.628.628,0,0,0,32.526,18.7Z" transform="translate(-9.79 -6.801)" fill="#00b7eb"/><circle cx="0.626" cy="0.626" r="0.626" transform="translate(22.11 7.202)" fill="#00b7eb"/><path d="M37.079,21.337a2.818,2.818,0,0,0,0-5.637,2.847,2.847,0,0,0-2.818,2.818A2.806,2.806,0,0,0,37.079,21.337Zm0-4.322a1.566,1.566,0,1,1-1.566,1.566A1.551,1.551,0,0,1,37.079,17.015ZM8.518,21.337a2.759,2.759,0,0,0,2.255-1.127,3,3,0,0,0,.564-1.628,2.819,2.819,0,1,0-2.818,2.756Zm0-4.322a1.566,1.566,0,1,1-1.566,1.566A1.551,1.551,0,0,1,8.518,17.015Zm28.56,17.662a2.818,2.818,0,1,0,0,5.637,2.818,2.818,0,1,0,0-5.637Zm0,4.384A1.566,1.566,0,1,1,38.645,37.5,1.551,1.551,0,0,1,37.079,39.062ZM11.337,37.5a2.846,2.846,0,0,0-2.818-2.818A2.818,2.818,0,1,0,11.337,37.5ZM8.518,39.062A1.566,1.566,0,1,1,10.084,37.5,1.551,1.551,0,0,1,8.518,39.062Z" transform="translate(0 -5.68)" fill="#00b7eb"/></g></svg>