<svg xmlns="http://www.w3.org/2000/svg" width="6.593" height="6.437" viewBox="0 0 6.593 6.437">
  <g id="Group_10009" data-name="Group 10009" transform="translate(-648.339 -344.037)">
    <path id="Icon_ionic-ios-arrow-down" data-name="Icon ionic-ios-arrow-down" d="M3.22,2.571,5.654.135a.458.458,0,0,1,.65,0,.464.464,0,0,1,0,.652L3.546,3.546a.459.459,0,0,1-.634.013L.134.789A.46.46,0,0,1,.784.137Z" transform="translate(651.251 350.474) rotate(-90)" fill="#1c3b4f"/>
    <path id="Icon_ionic-ios-arrow-down-2" data-name="Icon ionic-ios-arrow-down" d="M3.22,2.571,5.654.135a.458.458,0,0,1,.65,0,.464.464,0,0,1,0,.652L3.546,3.546a.459.459,0,0,1-.634.013L.134.789A.46.46,0,0,1,.784.137Z" transform="translate(648.339 350.474) rotate(-90)" fill="#1c3b4f"/>
  </g>
</svg>
