<svg xmlns="http://www.w3.org/2000/svg" width="52.302" height="66.235" viewBox="0 0 52.302 66.235"><path d="M284.321,339.7A15.847,15.847,0,0,1,268.5,323.87v-9.231A16.551,16.551,0,0,1,253,298.176V284.439a7.847,7.847,0,0,1,6.858-7.781h0a2.989,2.989,0,0,1,2.879-2.2c1.473,0,2.44,1.187,2.44,2.989s-.967,2.989-2.44,2.989a2.967,2.967,0,0,1-2.835-2.088h0a6.374,6.374,0,0,0-5.363,6.242V297.78c0,4.572,6.924,10.133,14.99,10.133s14.99-5.561,14.99-10.133V284.592a6.264,6.264,0,0,0-5.341-6.22h0a2.967,2.967,0,0,1-2.835,2.088c-1.495,0-2.44-1.165-2.44-2.989s.945-2.989,2.44-2.989a2.989,2.989,0,0,1,2.879,2.2h0a7.891,7.891,0,0,1,6.748,7.759V298.22A16.441,16.441,0,0,1,269.99,314.7h0v9.209a14.287,14.287,0,0,0,28.574,0v-9.253a4.945,4.945,0,1,1,1.583,0h0v9.253A15.847,15.847,0,0,1,284.321,339.7Zm-21.562-64.84a2.418,2.418,0,0,0-2.352,1.868v.374h-.4a7.341,7.341,0,0,0-6.4,7.253v13.781a16,16,0,0,0,14.99,15.913h.527v9.737a15.276,15.276,0,1,0,30.552,0v-9.715h.484a4.4,4.4,0,1,0-1.407,0h.484v9.715a14.836,14.836,0,1,1-29.672,0v-9.737h.571A15.891,15.891,0,0,0,285.53,298.11V284.439a7.3,7.3,0,0,0-6.352-7.231h-.4v-.374a2.418,2.418,0,0,0-2.352-1.868c-1.187,0-1.89.923-1.89,2.44s.7,2.44,1.89,2.44a2.418,2.418,0,0,0,2.2-1.714l.154-.484h.484a6.836,6.836,0,0,1,5.8,6.77V297.6c0,4.814-7.165,10.682-15.54,10.682s-15.54-5.869-15.54-10.682V284.417a6.9,6.9,0,0,1,5.847-6.77h.484l.154.462a2.4,2.4,0,0,0,2.308,1.714c1.187,0,1.89-.9,1.89-2.44S263.99,274.856,262.759,274.856Zm36.618,38.86a3.956,3.956,0,1,1,3.956-3.956,3.956,3.956,0,0,1-3.956,3.956Zm0-7.363a3.374,3.374,0,1,1,0,.066Zm-29.87,7.363a15.562,15.562,0,0,1-14.572-10.22l-1.077-2.9,2.044,2.2a18.617,18.617,0,0,0,27.211,0l2.044-2.2-1.055,2.879A15.605,15.605,0,0,1,269.507,313.716Zm-14.133-10.572v.154a14.968,14.968,0,0,0,28.134,0v-.154l-.11.11a19.144,19.144,0,0,1-28.046,0ZM276.3,279.3c-.681,0-1.473-.33-1.473-2s.791-2,1.473-2a2,2,0,0,1,1.846,1.231l.132.352-.242.264a.241.241,0,0,0,0,.154.308.308,0,0,0,0,.154l.264.286-.132.33A1.956,1.956,0,0,1,276.3,279.3Zm0-3.451c-.44,0-.923.176-.923,1.451s.484,1.451.923,1.451a1.451,1.451,0,0,0,1.341-.879h0a.748.748,0,0,1-.2-.528.792.792,0,0,1,.2-.527h0A1.473,1.473,0,0,0,276.3,275.845ZM262.759,279.3a1.978,1.978,0,0,1-1.868-1.275v-.33l.22-.264a.2.2,0,0,0,0-.132s0,0,0-.132l-.242-.264.132-.33a2,2,0,0,1,1.868-1.275c.659,0,1.451.352,1.451,2S263.418,279.3,262.759,279.3ZM261.4,277.8h0a1.429,1.429,0,0,0,1.341.923c.418,0,.9-.154.9-1.451s-.484-1.451-.9-1.451a1.451,1.451,0,0,0-1.341.923h0a.747.747,0,0,1,.2.483.77.77,0,0,1-.2.506Z" transform="translate(-252.5 -273.96)" fill="none" stroke="#e5e9ef" stroke-width="1"/></svg>